<?xml version="1.0" standalone="no"?><svg xmlns="http://www.w3.org/2000/svg" viewBox="0 0 1440 320"><path fill="#000000" fill-opacity="1" d="M0,128L30,117.3C60,107,120,85,180,117.3C240,149,300,235,360,250.7C420,267,480,213,540,202.7C600,192,660,224,720,197.3C780,171,840,85,900,58.7C960,32,1020,64,1080,106.7C1140,149,1200,203,1260,229.3C1320,256,1380,256,1410,256L1440,256L1440,320L1410,320C1380,320,1320,320,1260,320C1200,320,1140,320,1080,320C1020,320,960,320,900,320C840,320,780,320,720,320C660,320,600,320,540,320C480,320,420,320,360,320C300,320,240,320,180,320C120,320,60,320,30,320L0,320Z"></path></svg>