<?xml version="1.0" standalone="no"?><svg xmlns="http://www.w3.org/2000/svg" viewBox="0 0 1440 320"><path fill="#000000" fill-opacity="1" d="M0,160L18.5,181.3C36.9,203,74,245,111,234.7C147.7,224,185,160,222,144C258.5,128,295,160,332,170.7C369.2,181,406,171,443,138.7C480,107,517,53,554,80C590.8,107,628,213,665,218.7C701.5,224,738,128,775,112C812.3,96,849,160,886,176C923.1,192,960,160,997,170.7C1033.8,181,1071,235,1108,229.3C1144.6,224,1182,160,1218,154.7C1255.4,149,1292,203,1329,192C1366.2,181,1403,107,1422,69.3L1440,32L1440,320L1421.5,320C1403.1,320,1366,320,1329,320C1292.3,320,1255,320,1218,320C1181.5,320,1145,320,1108,320C1070.8,320,1034,320,997,320C960,320,923,320,886,320C849.2,320,812,320,775,320C738.5,320,702,320,665,320C627.7,320,591,320,554,320C516.9,320,480,320,443,320C406.2,320,369,320,332,320C295.4,320,258,320,222,320C184.6,320,148,320,111,320C73.8,320,37,320,18,320L0,320Z"></path></svg>